<svg width="31" height="31" viewBox="0 0 31 31" fill="none" xmlns="http://www.w3.org/2000/svg">
<g id="hearts">
<path id="thirdHeart" d="M28.1473 2.70649C27.3823 1.84801 26.4739 1.16712 25.4743 0.702729C24.4746 0.238336 23.4031 -0.000455244 22.3212 6.51556e-07C21.2392 0.000456547 20.1679 0.240151 19.1685 0.705386C18.1692 1.17062 17.2613 1.85228 16.4968 2.7114L15.4989 3.84481L14.5092 2.71385L14.5028 2.70663C13.7381 1.84856 12.8303 1.1679 11.8311 0.703512C10.832 0.239126 9.76114 0.000109981 8.67968 0.000109981C7.59823 0.000109981 6.52736 0.239126 5.52823 0.703512C4.5291 1.1679 3.62126 1.84856 2.85656 2.70663L2.412 3.20548C0.867621 4.93842 0 7.28879 0 9.73953C0 12.1903 0.867621 14.5406 2.412 16.2736L14.1453 29.4393L15.4703 30.997L15.5019 30.9615L15.5362 31L16.7776 29.5302L28.5919 16.2734C30.134 14.539 31 12.1892 31 9.73931C31 7.28943 30.134 4.93958 28.5919 3.20526L28.1473 2.70649ZM27.1358 14.6399L15.5019 27.6946L3.86768 14.6399C2.7094 13.3402 2.05869 11.5774 2.05869 9.73935C2.05869 7.9013 2.7094 6.13852 3.86768 4.83882L4.31231 4.33997C5.47003 3.04092 7.04005 2.31081 8.6773 2.31012C10.3146 2.30943 11.8851 3.03821 13.0436 4.33629L15.4944 7.1364L17.9569 4.33997C18.5304 3.69642 19.2113 3.18592 19.9606 2.83763C20.71 2.48934 21.5131 2.31008 22.3242 2.31008C23.1353 2.31008 23.9384 2.48934 24.6878 2.83763C25.4371 3.18592 26.118 3.69642 26.6915 4.33997L27.1361 4.83875C28.2926 6.13952 28.9421 7.90194 28.9421 9.73937C28.942 11.5768 28.2924 13.3392 27.1358 14.6399Z" fill="black"/>
<path id="secondHeart" d="M28.1473 2.70649C27.3823 1.84801 26.4739 1.16712 25.4743 0.702729C24.4746 0.238336 23.4031 -0.000455244 22.3212 6.51556e-07C21.2392 0.000456547 20.1679 0.240151 19.1685 0.705386C18.1692 1.17062 17.2613 1.85228 16.4968 2.7114L15.4989 3.84481L14.5092 2.71385L14.5028 2.70663C13.7381 1.84856 12.8303 1.1679 11.8311 0.703512C10.832 0.239126 9.76114 0.000109981 8.67968 0.000109981C7.59823 0.000109981 6.52736 0.239126 5.52823 0.703512C4.5291 1.1679 3.62126 1.84856 2.85656 2.70663L2.412 3.20548C0.867621 4.93842 0 7.28879 0 9.73953C0 12.1903 0.867621 14.5406 2.412 16.2736L14.1453 29.4393L15.4703 30.997L15.5019 30.9615L15.5362 31L16.7776 29.5302L28.5919 16.2734C30.134 14.539 31 12.1892 31 9.73931C31 7.28943 30.134 4.93958 28.5919 3.20526L28.1473 2.70649ZM27.1358 14.6399L15.5019 27.6946L3.86768 14.6399C2.7094 13.3402 2.05869 11.5774 2.05869 9.73935C2.05869 7.9013 2.7094 6.13852 3.86768 4.83882L4.31231 4.33997C5.47003 3.04092 7.04005 2.31081 8.6773 2.31012C10.3146 2.30943 11.8851 3.03821 13.0436 4.33629L15.4944 7.1364L17.9569 4.33997C18.5304 3.69642 19.2113 3.18592 19.9606 2.83763C20.71 2.48934 21.5131 2.31008 22.3242 2.31008C23.1353 2.31008 23.9384 2.48934 24.6878 2.83763C25.4371 3.18592 26.118 3.69642 26.6915 4.33997L27.1361 4.83875C28.2926 6.13952 28.9421 7.90194 28.9421 9.73937C28.942 11.5768 28.2924 13.3392 27.1358 14.6399Z" fill="black"/>
<path id="mainHeart" d="M28.1473 2.70649C27.3823 1.84801 26.4739 1.16712 25.4743 0.702729C24.4746 0.238336 23.4031 -0.000455244 22.3212 6.51556e-07C21.2392 0.000456547 20.1679 0.240151 19.1685 0.705386C18.1692 1.17062 17.2613 1.85228 16.4968 2.7114L15.4989 3.84481L14.5092 2.71385L14.5028 2.70663C13.7381 1.84856 12.8303 1.1679 11.8311 0.703512C10.832 0.239126 9.76114 0.000109981 8.67968 0.000109981C7.59823 0.000109981 6.52736 0.239126 5.52823 0.703512C4.5291 1.1679 3.62126 1.84856 2.85656 2.70663L2.412 3.20548C0.867621 4.93842 0 7.28879 0 9.73953C0 12.1903 0.867621 14.5406 2.412 16.2736L14.1453 29.4393L15.4703 30.997L15.5019 30.9615L15.5362 31L16.7776 29.5302L28.5919 16.2734C30.134 14.539 31 12.1892 31 9.73931C31 7.28943 30.134 4.93958 28.5919 3.20526L28.1473 2.70649ZM27.1358 14.6399L15.5019 27.6946L3.86768 14.6399C2.7094 13.3402 2.05869 11.5774 2.05869 9.73935C2.05869 7.9013 2.7094 6.13852 3.86768 4.83882L4.31231 4.33997C5.47003 3.04092 7.04005 2.31081 8.6773 2.31012C10.3146 2.30943 11.8851 3.03821 13.0436 4.33629L15.4944 7.1364L17.9569 4.33997C18.5304 3.69642 19.2113 3.18592 19.9606 2.83763C20.71 2.48934 21.5131 2.31008 22.3242 2.31008C23.1353 2.31008 23.9384 2.48934 24.6878 2.83763C25.4371 3.18592 26.118 3.69642 26.6915 4.33997L27.1361 4.83875C28.2926 6.13952 28.9421 7.90194 28.9421 9.73937C28.942 11.5768 28.2924 13.3392 27.1358 14.6399Z" fill="black"/>
</g>
</svg>
